<svg width="100" height="100">
  <g transform="scale(0.45) translate(30, 30)">
    <path fill-rule="evenodd" clip-rule="evenodd" d="M 79.796875 10 A 70 70 0 0 0 10 80 A 70 70 0 0 0 80 150 A 70 70 0 0 0 150 80 A 70 70 0 0 0 80 10 A 70 70 0 0 0 79.796875 10 z M 110.93359 38.5 C 114.11991 38.491338 117.30995 39.711206 119.74805 42.160156 C 124.62075 47.056656 124.64102 55.0179 119.79492 59.9375 L 98.519531 81.515625 L 119.81836 103.11523 C 124.62456 107.99983 124.55858 115.91021 119.67188 120.78711 C 114.78378 125.66191 106.92589 125.64952 102.12109 120.76562 L 80.96875 99.316406 L 59.777344 120.80664 C 54.928444 125.73044 47.044169 125.75142 42.167969 120.85352 C 37.295269 115.95702 37.274294 107.99577 42.121094 103.07617 L 63.396484 81.496094 L 42.099609 59.898438 C 37.292709 55.013838 37.357441 47.101509 42.244141 42.224609 C 47.132241 37.350509 54.992075 37.362194 59.796875 42.246094 L 80.949219 63.697266 L 102.14062 42.207031 C 104.56508 39.745131 107.74728 38.508662 110.93359 38.5 z " fill="#b33e3e" fill-opacity="1.0"/>
  </g>
</svg>
